<?xml version="1.0" encoding="UTF-8" standalone="no"?>
<!-- Created with Inkscape (http://www.inkscape.org/) -->

<svg
   width="1280"
   height="720"
   viewBox="0 0 1280 720"
   version="1.1"
   id="svg1"
   xml:space="preserve"
   inkscape:version="1.3 (0e150ed, 2023-07-21)"
   sodipodi:docname="youtube-thumnail-vite-config-plugin.svg"
   xmlns:inkscape="http://www.inkscape.org/namespaces/inkscape"
   xmlns:sodipodi="http://sodipodi.sourceforge.net/DTD/sodipodi-0.dtd"
   xmlns="http://www.w3.org/2000/svg"
   xmlns:svg="http://www.w3.org/2000/svg"><sodipodi:namedview
     id="namedview1"
     pagecolor="#ffffff"
     bordercolor="#000000"
     borderopacity="0.25"
     inkscape:showpageshadow="2"
     inkscape:pageopacity="0.0"
     inkscape:pagecheckerboard="0"
     inkscape:deskcolor="#d1d1d1"
     inkscape:document-units="px"
     inkscape:zoom="0.50373353"
     inkscape:cx="640.21945"
     inkscape:cy="359.31696"
     inkscape:window-width="1440"
     inkscape:window-height="847"
     inkscape:window-x="0"
     inkscape:window-y="25"
     inkscape:window-maximized="1"
     inkscape:current-layer="layer3" /><defs
     id="defs1"><rect
       x="267.99884"
       y="450.63508"
       width="438.72402"
       height="131.02165"
       id="rect6" /><rect
       x="75.43671"
       y="105.21436"
       width="784.14475"
       height="537.98285"
       id="rect4" /><linearGradient
       id="paint0_linear"
       x1="6.0002"
       y1="32.9999"
       x2="235"
       y2="344"
       gradientUnits="userSpaceOnUse"
       gradientTransform="matrix(0.07142,0,0,0.07142,1.3398,1.8944)"><stop
         stop-color="#41D1FF"
         id="stop38" /><stop
         offset="1"
         stop-color="#BD34FE"
         id="stop40" /></linearGradient><linearGradient
       id="paint1_linear"
       x1="194.651"
       y1="8.8182"
       x2="236.076"
       y2="292.989"
       gradientUnits="userSpaceOnUse"
       gradientTransform="matrix(0.07142,0,0,0.07142,1.3398,1.8944)"><stop
         stop-color="#FFEA83"
         id="stop43" /><stop
         offset=".0833"
         stop-color="#FFDD35"
         id="stop45" /><stop
         offset="1"
         stop-color="#FFA800"
         id="stop47" /></linearGradient></defs><g
     inkscape:label="Layer 1"
     inkscape:groupmode="layer"
     id="layer1" /><g
     inkscape:groupmode="layer"
     id="layer2"
     inkscape:label="Background"><rect
       style="fill:#000000"
       id="rect1"
       width="1294.3352"
       height="732.53015"
       x="-7.9407063"
       y="-7.9407063" /></g><g
     inkscape:groupmode="layer"
     id="layer3"
     inkscape:label="Graphics"><g
       style="fill:none"
       id="g4"
       transform="matrix(10.808073,0,0,10.808073,842.61712,160.27031)"><path
         d="M 29.8836,6.146 16.7418,29.6457 c -0.2714,0.4851 -0.9684,0.488 -1.2439,0.0052 L 2.0956,6.1482 c -0.3,-0.5262 0.1498,-1.1635 0.746,-1.057 l 13.156,2.3516 a 0.7144,0.7144 0 0 0 0.2537,-4e-4 L 29.1321,5.0946 c 0.5942,-0.1083 1.0463,0.5241 0.7515,1.0513 z"
         fill="url(#paint0_linear)"
         id="path1"
         style="fill:url(#paint0_linear)" /><path
         d="M 22.2644,2.0069 12.5391,3.9125 A 0.3571,0.3571 0 0 0 12.2512,4.2419 L 11.653,14.3457 c -0.014,0.238 0.2045,0.4227 0.4367,0.3691 L 14.7974,14.09 c 0.2534,-0.0585 0.4823,0.1647 0.4302,0.4194 l -0.8044,3.9393 c -0.0542,0.265 0.1947,0.4918 0.4536,0.4132 l 1.6724,-0.5082 c 0.2593,-0.0787 0.5084,0.1487 0.4536,0.414 l -1.2784,6.1877 c -0.08,0.387 0.4348,0.598 0.6495,0.2662 L 16.5173,25 24.442,9.1848 C 24.5747,8.92 24.346,8.6181 24.055,8.6742 L 21.268,9.2121 C 21.006,9.2626 20.7832,9.0187 20.8571,8.7624 l 1.8191,-6.306 C 22.7502,2.1996 22.5266,1.9555 22.2644,2.0069 Z"
         fill="url(#paint1_linear)"
         id="path2"
         style="fill:url(#paint1_linear)" /></g><g
       id="g6"
       transform="translate(-41.688708,35.733178)"><text
         xml:space="preserve"
         id="text4"
         style="font-style:normal;font-variant:normal;font-weight:normal;font-stretch:normal;font-size:74.6667px;font-family:'Arial Black';-inkscape-font-specification:'Arial Black, ';text-align:center;white-space:pre;shape-inside:url(#rect4);fill:#ffffff"
         x="267.36734"
         y="0"><tspan
           x="172.98098"
           y="172.15944"
           id="tspan1">Custom Plugin </tspan><tspan
           x="336.80658"
           y="265.49281"
           id="tspan2">Config</tspan></text><text
         xml:space="preserve"
         id="text6"
         style="font-style:normal;font-variant:normal;font-weight:normal;font-stretch:normal;font-size:74.6667px;font-family:'Arial Black';-inkscape-font-specification:'Arial Black, ';text-align:center;white-space:pre;shape-inside:url(#rect6);fill:#ffffff"
         transform="translate(-15.881415,-43.673885)"><tspan
           x="351.95404"
           y="517.57936"
           id="tspan3">ViteJS</tspan></text><rect
         style="fill:#ffffff"
         id="rect5"
         width="613.41956"
         height="3.9703531"
         x="154.84378"
         y="363.28732" /></g></g></svg>
